<svg width="348" height="96" viewBox="0 0 348 96" fill="none" xmlns="http://www.w3.org/2000/svg">
<path d="M27.6495 94.9261C26.5528 93.6688 25.799 91.7626 25.3881 89.2047C24.9773 86.6467 24.7703 82.8561 24.7703 77.8266V54.669C24.7703 52.6949 24.3934 51.3695 23.6396 50.6961C22.8858 50.0226 21.3442 49.6859 19.0148 49.6859V94.9261H0V0.676565H23.4357C29.602 0.676565 34.4492 2.18107 37.9803 5.187C41.5083 8.19602 43.2723 12.2554 43.2723 17.3714V28.6814C43.2723 30.6555 43.0838 32.3825 42.7069 33.8653C42.33 35.3451 41.6782 36.6705 40.7545 37.8382C39.8308 39.006 38.6105 40.0378 37.106 40.9338C35.5984 41.8327 33.7479 42.6854 31.5545 43.4917C35.8703 44.7491 38.904 46.4328 40.6525 48.5397C42.4011 50.6497 43.2723 53.6804 43.2723 57.6285V77.9595C43.2723 78.4105 43.2877 79.1273 43.3248 80.1128C43.3588 81.1013 43.4422 82.2228 43.5812 83.4801L43.6832 84.5583L43.7851 85.5006C44.403 91.1541 45.3267 94.299 46.5593 94.9261H27.6464H27.6495ZM19.0148 38.2429C19.9725 38.2429 20.7263 38.2213 21.2762 38.175C21.8231 38.1317 22.2679 38.0205 22.6139 37.8382C24.0535 37.3903 24.7734 35.8641 24.7734 33.2598V17.7761C24.7734 15.802 24.3965 14.4766 23.6427 13.8032C22.8889 13.1297 21.3473 12.793 19.0179 12.793V38.2398L19.0148 38.2429Z" fill="#101A40"/>
<path d="M82.8467 94.9261L79.6615 69.6121H71.1288L67.9437 94.9261H49.1328L63.3159 0.676565H87.3694L101.553 94.9261H82.8467ZM75.3427 28.4127L72.7723 56.5535H78.0149L75.3427 28.4127Z" fill="#101A40"/>
<path d="M130.231 15.6228C130.231 13.7383 129.236 12.796 127.25 12.796C125.263 12.796 124.37 13.7383 124.37 15.6228V24.3749C124.37 26.2594 124.747 27.9431 125.501 29.4229C126.255 30.9027 127.695 32.8119 129.817 35.1443C130.089 35.5027 130.364 35.8394 130.639 36.1545C130.911 36.4697 131.185 36.7601 131.46 37.0288C132.282 38.0174 132.983 38.8268 133.567 39.4509C134.148 40.0811 134.664 40.6403 135.109 41.1346C135.554 41.6288 135.983 42.1231 136.394 42.6143C136.805 43.1086 137.284 43.6246 137.834 44.1621C140.027 46.5872 141.844 48.7189 143.28 50.557C144.72 52.3983 145.866 54.1252 146.725 55.7409C147.581 57.3567 148.18 58.9044 148.523 60.3873C148.866 61.8671 149.036 63.4643 149.036 65.1665V77.1501C149.036 83.7922 147.321 88.593 143.895 91.5557C140.469 94.5183 134.951 95.9981 127.345 95.9981C120.561 95.9981 115.285 94.4967 111.516 91.4877C107.747 88.4818 105.862 84.2834 105.862 78.8986V57.3567H123.132V79.0346C123.132 80.0232 123.456 80.8079 124.108 81.3917C124.76 81.9756 125.665 82.266 126.833 82.266C129.094 82.266 130.225 81.1878 130.225 79.0346V67.8604C130.225 66.7822 130.188 65.908 130.123 65.2345C130.055 64.561 129.848 63.9123 129.505 63.282C129.162 62.6549 128.646 61.9134 127.963 61.0608C127.277 60.2081 126.283 59.0187 124.982 57.4926C123.817 56.1457 122.291 54.3971 120.407 52.2407C118.522 50.0875 116.276 47.4831 113.675 44.4309C112.989 43.6215 112.424 42.9727 111.979 42.4784C111.531 41.9872 111.173 41.5578 110.901 41.1994C110.626 40.8411 110.388 40.526 110.181 40.2572C109.974 39.9884 109.77 39.6733 109.563 39.3149C107.095 35.4563 105.862 31.9994 105.862 28.9471V18.3105C105.862 12.0299 107.626 7.40515 111.154 4.44247C114.682 1.47979 120.181 0 127.651 0C134.093 0 139.011 1.41492 142.403 4.24166C145.795 7.06841 147.491 11.2205 147.491 16.6948V32.9849H130.222V15.6166L130.231 15.6228Z" fill="#101A40"/>
<path d="M182.753 12.9289V94.9261H163.738V12.9289H153.151V0.676565H193.34V12.9289H182.753Z" fill="#101A40"/>
<path d="M230.653 94.9261L228.184 89.943C227.02 91.1108 225.923 92.0778 224.894 92.8377C223.865 93.6008 222.84 94.231 221.811 94.7222C220.782 95.2134 219.704 95.5502 218.573 95.7325C217.443 95.9116 216.226 96.0012 214.925 96.0012C209.716 96.0012 205.586 94.5678 202.54 91.6916C199.491 88.8185 197.964 84.8703 197.964 79.844V18.3136C197.964 11.9403 199.661 7.29702 203.053 4.37759C206.445 1.46126 211.842 0.00308934 219.241 0.00308934C225.886 0.00308934 230.974 1.43963 234.505 4.31272C238.033 7.1858 239.797 11.3132 239.797 16.701V34.2052H222.633V15.0852C222.633 13.5591 221.706 12.796 219.859 12.796C218.011 12.796 216.979 13.5591 216.979 15.0852V80.5205C216.979 82.0467 217.937 82.8097 219.859 82.8097C221.78 82.8097 222.633 82.0467 222.633 80.5205V62.8835H218.728V48.4779H239.8V94.9292H230.653V94.9261Z" fill="#101A40"/>
<path d="M277.728 94.9261L274.543 69.6121H266.01L262.825 94.9261H244.014L258.2 0.676565H282.254L296.44 94.9261H277.728ZM270.224 28.4127L267.654 56.5535H272.896L270.224 28.4127Z" fill="#101A40"/>
<path d="M328.711 94.9261C327.615 93.6688 326.861 91.7626 326.45 89.2047C326.039 86.6467 325.832 82.8561 325.832 77.8266V54.669C325.832 52.6949 325.455 51.3695 324.701 50.6961C323.948 50.0226 322.406 49.6859 320.077 49.6859V94.9261H301.062V0.676565H324.497C330.664 0.676565 335.511 2.18107 339.042 5.187C342.57 8.19602 344.334 12.2554 344.334 17.3714V28.6814C344.334 30.6555 344.146 32.3825 343.769 33.8653C343.392 35.3451 342.74 36.6705 341.816 37.8382C340.892 39.006 339.672 40.0378 338.168 40.9338C336.66 41.8327 334.81 42.6854 332.616 43.4917C336.932 44.7491 339.966 46.4328 341.714 48.5397C343.463 50.6497 344.334 53.6804 344.334 57.6285V77.9595C344.334 78.4105 344.349 79.1273 344.387 80.1128C344.421 81.1013 344.504 82.2228 344.643 83.4801L344.745 84.5583L344.847 85.5006C345.465 91.1541 346.388 94.299 347.621 94.9261H328.708H328.711ZM320.077 38.2429C321.034 38.2429 321.788 38.2213 322.338 38.175C322.885 38.1317 323.33 38.0205 323.676 37.8382C325.115 37.3903 325.835 35.8641 325.835 33.2598V17.7761C325.835 15.802 325.458 14.4766 324.704 13.8032C323.951 13.1297 322.409 12.793 320.08 12.793V38.2398L320.077 38.2429Z" fill="#101A40"/>
</svg>
