<svg width="19" height="20" viewBox="0 0 19 20" fill="none" xmlns="http://www.w3.org/2000/svg">
<path d="M11.5418 4.66683C12.3557 4.82563 13.1038 5.22371 13.6902 5.81011C14.2766 6.39651 14.6746 7.14455 14.8334 7.9585M11.5418 1.3335C13.2328 1.52136 14.8098 2.27864 16.0136 3.481C17.2175 4.68336 17.9768 6.25934 18.1668 7.95016M17.3334 14.6002V17.1002C17.3344 17.3322 17.2868 17.562 17.1939 17.7746C17.1009 17.9873 16.9645 18.1782 16.7935 18.3351C16.6225 18.492 16.4206 18.6114 16.2007 18.6858C15.9809 18.7601 15.7479 18.7877 15.5168 18.7668C12.9525 18.4882 10.4893 17.612 8.32511 16.2085C6.31163 14.9291 4.60455 13.222 3.32511 11.2085C1.91676 9.0345 1.04031 6.55933 0.766774 3.9835C0.745949 3.75305 0.773336 3.5208 0.847191 3.30152C0.921045 3.08224 1.03975 2.88074 1.19575 2.70985C1.35174 2.53896 1.54161 2.40242 1.75327 2.30893C1.96492 2.21544 2.19372 2.16705 2.42511 2.16683H4.92511C5.32953 2.16285 5.7216 2.30606 6.02824 2.56977C6.33488 2.83349 6.53517 3.1997 6.59177 3.60016C6.69729 4.40022 6.89298 5.18577 7.17511 5.94183C7.28723 6.2401 7.31149 6.56426 7.24503 6.8759C7.17857 7.18754 7.02416 7.47359 6.80011 7.70016L5.74177 8.7585C6.92807 10.8448 8.65548 12.5722 10.7418 13.7585L11.8001 12.7002C12.0267 12.4761 12.3127 12.3217 12.6244 12.2552C12.936 12.1888 13.2602 12.213 13.5584 12.3252C14.3145 12.6073 15.1001 12.803 15.9001 12.9085C16.3049 12.9656 16.6746 13.1695 16.9389 13.4814C17.2032 13.7933 17.3436 14.1915 17.3334 14.6002Z" stroke="#252E6D" stroke-width="1.25" stroke-linecap="round" stroke-linejoin="round"/>
</svg>
