<svg width="100" height="12" viewBox="0 0 100 12" fill="none" xmlns="http://www.w3.org/2000/svg">
<path d="M91.9136 0.0432129C87.549 0.0432129 83.998 2.71523 83.998 6.00002C83.998 9.2848 87.549 11.9568 91.9136 11.9568C96.3737 11.9568 100 9.2848 100 6.00002C100 2.71523 96.3737 0.0432129 91.9136 0.0432129ZM91.9136 10.0231C90.3717 10.0231 89.2014 8.29534 89.2014 6.00504C89.2014 3.5741 90.3466 1.81619 91.9136 1.81619C93.4807 1.81619 94.6308 3.68962 94.6258 6.00504C94.6158 8.17982 93.3802 10.0231 91.9136 10.0231ZM31.9739 0.0432129C27.6092 0.0432129 24.0532 2.71523 24.0532 6.00002C24.0532 9.2848 27.6092 11.9568 31.9739 11.9568C36.4339 11.9568 40.0603 9.2848 40.0603 6.00002C40.0603 2.71523 36.4339 0.0432129 31.9739 0.0432129ZM31.9739 10.0231C30.4269 10.0231 29.2617 8.29534 29.2617 6.00504C29.2617 3.5741 30.4018 1.81619 31.9739 1.81619C33.4807 1.81619 34.6911 3.68962 34.6861 6.00504C34.6861 8.17982 33.4405 10.0231 31.9739 10.0231ZM74.3395 2.07234H76.3033L72.8629 8.77752L68.9352 2.07234H71.7177V0.600721H60.5927V2.07234H63.2094L68.2772 11.56H74.3345L79.4073 2.07234H82.0191V0.600721H74.3395V2.07234ZM13.7519 2.21297H15.7609L12.4008 8.4862L8.72928 2.21297H11.4113V0.450042H0V2.19791H2.67202L7.69462 11.6153L7.72978 11.6856H13.9478L13.9879 11.6153L19.0105 2.19791H21.6826V0.450042H13.7519V2.21297ZM12.456 8.71222L13.8674 6.07536L12.4812 8.7524L12.456 8.71222ZM9.87443 4.46812L8.48317 2.16275H8.52335L9.87443 4.46812ZM54.892 9.76194H52.1045V2.07234H54.7263V0.600721H44.4149V2.07234H47.0367V9.76194H44.4149V11.56H59.9598V6.47717H58.3275C58.2899 7.36236 57.9112 8.19867 57.2708 8.81096C56.6304 9.42326 55.778 9.76404 54.892 9.76194Z" fill="#101A40"/>
</svg>
