<svg width="80" height="22" viewBox="0 0 80 22" fill="none" xmlns="http://www.w3.org/2000/svg">
<path d="M34 0.0333252L25.8 13.7533H34.3733L40.4933 3.56666L44.3867 9.97999H39.44L37.1733 13.7533H54.84L46.7333 0.0333252H34Z" fill="#101A40"/>
<path d="M56.68 0.0333252L56.6934 13.7533H65.7067V10.2333H79.7467V6.43333H65.7067V4.01999H79.9334V0.0333252H56.68Z" fill="#101A40"/>
<path d="M80 16.7534H0V21.9667H80V16.7534Z" fill="#101A40"/>
<path d="M0 13.66H15.7867C20.3733 13.66 22.5733 12.7933 23.9733 11.3933C25.3733 9.99332 25.8533 8.08666 25.8533 6.84666C25.8533 5.61999 25.3733 3.69999 23.9733 2.29999C22.5867 0.899994 20.3733 0.0333252 15.7867 0.0333252H0V13.66ZM8.84 3.68666H12.6533C14.48 3.68666 14.9867 4.04666 15.6133 4.63333C16.2267 5.21999 16.56 6.09999 16.56 6.89999C16.56 7.79333 16.2267 8.60666 15.6133 9.17999C15 9.76666 14.4533 10.1 12.7333 10.1H8.84V3.68666Z" fill="#101A40"/>
</svg>
