<svg width="145" height="40" viewBox="0 0 145 40" fill="none" xmlns="http://www.w3.org/2000/svg">
<g clip-path="url(#clip0_251_575)">
<path d="M12.5206 39.5526C12.0637 39.0287 11.7496 38.2344 11.5784 37.1686C11.4072 36.1028 11.3209 34.5234 11.3209 32.4278V22.7787C11.3209 21.9562 11.1639 21.404 10.8498 21.1234C10.5357 20.8428 9.89342 20.7024 8.92285 20.7024V39.5526H1V0.281906H10.7649C13.3342 0.281906 15.3538 0.908785 16.8251 2.16125C18.2951 3.41501 19.0301 5.10642 19.0301 7.23807V11.9506C19.0301 12.7731 18.9516 13.4927 18.7946 14.1106C18.6375 14.7271 18.3659 15.2794 17.981 15.7659C17.5962 16.2525 17.0877 16.6824 16.4608 17.0557C15.8327 17.4303 15.0616 17.7856 14.1477 18.1216C15.9459 18.6455 17.21 19.347 17.9386 20.2249C18.6671 21.1041 19.0301 22.3668 19.0301 24.0119V32.4831C19.0301 32.6711 19.0366 32.9697 19.052 33.3803C19.0662 33.7922 19.1009 34.2595 19.1588 34.7834L19.2013 35.2326L19.2438 35.6252C19.5012 37.9809 19.8861 39.2913 20.3997 39.5526H12.5194H12.5206ZM8.92285 15.9346C9.32189 15.9346 9.63597 15.9256 9.8651 15.9062C10.0929 15.8882 10.2783 15.8419 10.4225 15.7659C11.0223 15.5793 11.3222 14.9434 11.3222 13.8583V7.4067C11.3222 6.58416 11.1652 6.03194 10.8511 5.75132C10.537 5.47071 9.89471 5.3304 8.92414 5.3304V15.9333L8.92285 15.9346Z" fill="white"/>
<path d="M35.5194 39.5526L34.1923 29.005H30.637L29.3099 39.5526H21.472L27.3816 0.281906H37.4039L43.3136 39.5526H35.5194ZM32.3928 11.8386L31.3218 23.5639H33.5062L32.3928 11.8386Z" fill="white"/>
<path d="M55.2629 6.5095C55.2629 5.72429 54.8484 5.33169 54.0207 5.33169C53.193 5.33169 52.821 5.72429 52.821 6.5095V10.1562C52.821 10.9414 52.978 11.643 53.2921 12.2595C53.6062 12.8761 54.206 13.6716 55.0904 14.6435C55.2036 14.7928 55.3182 14.9331 55.4328 15.0644C55.546 15.1957 55.6606 15.3167 55.7752 15.4287C56.1176 15.8406 56.4098 16.1778 56.6531 16.4379C56.8951 16.7005 57.11 16.9334 57.2954 17.1394C57.4807 17.3454 57.6597 17.5513 57.8309 17.756C58.0021 17.9619 58.2016 18.1769 58.4307 18.4009C59.3446 19.4114 60.1015 20.2995 60.7001 21.0654C61.2999 21.8326 61.7775 22.5522 62.1353 23.2254C62.4919 23.8986 62.7416 24.5435 62.8845 25.1614C63.0274 25.778 63.0982 26.4435 63.0982 27.1527V32.1459C63.0982 34.9134 62.3838 36.9138 60.9562 38.1482C59.5287 39.3827 57.2297 39.9992 54.0606 39.9992C51.2338 39.9992 49.0353 39.3736 47.4649 38.1199C45.8944 36.8674 45.1092 35.1181 45.1092 32.8744V23.8986H52.3048V32.9311C52.3048 33.343 52.44 33.6699 52.7116 33.9132C52.9832 34.1565 53.3603 34.2775 53.8469 34.2775C54.7892 34.2775 55.2603 33.8283 55.2603 32.9311V28.2752C55.2603 27.8259 55.2448 27.4617 55.2178 27.181C55.1895 26.9004 55.1032 26.6301 54.9604 26.3675C54.8175 26.1062 54.6025 25.7973 54.318 25.442C54.0323 25.0867 53.6178 24.5911 53.0759 23.9553C52.5906 23.394 51.9547 22.6655 51.1695 21.767C50.3843 20.8698 49.4485 19.7846 48.3646 18.5129C48.0789 18.1756 47.8433 17.9053 47.6579 17.6993C47.4713 17.4947 47.322 17.3158 47.2087 17.1664C47.0941 17.0171 46.995 16.8858 46.9088 16.7738C46.8225 16.6618 46.7376 16.5305 46.6513 16.3812C45.6228 14.7735 45.1092 13.3331 45.1092 12.0613V7.62939C45.1092 5.01246 45.8442 3.08548 47.3143 1.85103C48.7843 0.616585 51.0755 3.8147e-06 54.188 3.8147e-06C56.8719 3.8147e-06 58.9211 0.589553 60.3345 1.76736C61.7479 2.94517 62.4546 4.6752 62.4546 6.95617V13.7437H55.259V6.50693L55.2629 6.5095Z" fill="white"/>
<path d="M77.1469 5.38704V39.5526H69.2241V5.38704H64.8128V0.281906H81.5582V5.38704H77.1469Z" fill="white"/>
<path d="M97.1053 39.5526L96.0768 37.4763C95.5915 37.9628 95.1346 38.3657 94.7059 38.6824C94.2773 39.0003 93.8499 39.2629 93.4213 39.4676C92.9926 39.6723 92.5434 39.8126 92.0723 39.8885C91.6011 39.9632 91.094 40.0005 90.552 40.0005C88.3818 40.0005 86.6608 39.4032 85.3916 38.2048C84.1211 37.0077 83.4852 35.3626 83.4852 33.2683V7.63067C83.4852 4.97513 84.1919 3.04043 85.6053 1.824C87.0186 0.608861 89.2674 0.00129104 92.3503 0.00129104C95.1191 0.00129104 97.2392 0.599851 98.7105 1.79697C100.18 2.99409 100.915 4.71382 100.915 6.95874V14.2522H93.7637V6.28552C93.7637 5.64963 93.3775 5.33169 92.6077 5.33169C91.838 5.33169 91.4081 5.64963 91.4081 6.28552V33.5502C91.4081 34.1861 91.8071 34.5041 92.6077 34.5041C93.4084 34.5041 93.7637 34.1861 93.7637 33.5502V26.2015H92.1366V20.1991H100.917V39.5538H97.1053V39.5526Z" fill="white"/>
<path d="M116.72 39.5526L115.393 29.005H111.838L110.51 39.5526H102.673L108.583 0.281906H118.606L124.517 39.5526H116.72ZM113.593 11.8386L112.522 23.5639H114.707L113.593 11.8386Z" fill="white"/>
<path d="M137.963 39.5526C137.506 39.0287 137.192 38.2344 137.021 37.1686C136.85 36.1028 136.763 34.5234 136.763 32.4278V22.7787C136.763 21.9562 136.606 21.404 136.292 21.1234C135.978 20.8428 135.336 20.7024 134.365 20.7024V39.5526H126.442V0.281906H136.207C138.777 0.281906 140.796 0.908785 142.267 2.16125C143.737 3.41501 144.472 5.10642 144.472 7.23807V11.9506C144.472 12.7731 144.394 13.4927 144.237 14.1106C144.08 14.7271 143.808 15.2794 143.423 15.7659C143.039 16.2525 142.53 16.6824 141.903 17.0557C141.275 17.4303 140.504 17.7856 139.59 18.1216C141.388 18.6455 142.652 19.347 143.381 20.2249C144.109 21.1041 144.472 22.3668 144.472 24.0119V32.4831C144.472 32.6711 144.479 32.9697 144.494 33.3803C144.509 33.7922 144.543 34.2595 144.601 34.7834L144.644 35.2326L144.686 35.6252C144.944 37.9809 145.329 39.2913 145.842 39.5526H137.962H137.963ZM134.365 15.9346C134.764 15.9346 135.078 15.9256 135.307 15.9062C135.535 15.8882 135.721 15.8419 135.865 15.7659C136.465 15.5793 136.765 14.9434 136.765 13.8583V7.4067C136.765 6.58416 136.608 6.03194 136.294 5.75132C135.979 5.47071 135.337 5.3304 134.367 5.3304V15.9333L134.365 15.9346Z" fill="white"/>
</g>
<defs>
<clipPath id="clip0_251_575">
<rect width="145" height="40" fill="white"/>
</clipPath>
</defs>
</svg>
