<svg width="140" height="30" viewBox="0 0 140 30" fill="none" xmlns="http://www.w3.org/2000/svg">
<path fill-rule="evenodd" clip-rule="evenodd" d="M14.6999 14.9214L15.3442 14.5525L23.4081 20.0811L14.6999 14.9214ZM14.2367 14.6266L13.6373 14.2816L14.3055 3.72959L14.2367 14.6266ZM13.5145 14.5907L10.8423 16.802L14.0443 14.9132L13.5145 14.5907Z" fill="#F5F5F5"/>
<path fill-rule="evenodd" clip-rule="evenodd" d="M14.3999 0.600098C6.44752 0.600098 0 7.04686 0 15C0 22.9531 6.44752 29.3999 14.3999 29.3999C22.353 29.3999 28.8006 22.9531 28.8006 15C28.8006 7.04686 22.353 0.600098 14.3999 0.600098ZM14.4014 28.6321C11.111 28.6321 8.03171 27.5351 5.73736 25.5214C3.50513 23.5608 1.77127 20.4455 1.34323 17.1342C2.35795 23.4313 7.81844 28.2415 14.4014 28.2415C21.7065 28.2415 27.6287 22.3193 27.6287 15.0142C27.6287 11.9835 26.4965 9.01569 24.7813 6.7857C26.5189 8.12594 28.0193 11.9431 28.0193 15.0142C28.0193 22.5348 21.922 28.6321 14.4014 28.6321ZM13.151 13.9741L14.3153 2.03463L14.3999 2.03388H14.4298L14.5443 14.5982L16.5483 13.4001L14.5324 2.03537C21.6324 2.10646 27.3675 7.88274 27.3675 15C27.3675 17.2869 26.7749 19.4345 25.7362 21.2993L16.7362 13.769L15.8838 14.2524L25.6748 21.4071L25.6 21.5358L14.5892 15.2013V17.4358L25.5244 21.6623C23.2578 25.4383 19.124 27.9661 14.3992 27.9661C9.67951 27.9661 5.54878 25.4435 3.28138 21.6735L14.2098 17.4126V15.1788L3.18634 21.5134L3.11376 21.3876L12.8703 14.2524L12.018 13.769L3.04266 21.2597C1.98408 19.3434 1.43042 17.1893 1.43378 15C1.43378 7.93886 7.07835 2.19626 14.1013 2.03687L12.345 13.4906L13.151 13.9741ZM14.3999 1.37386C6.87855 1.37386 0.781993 7.47116 0.781993 14.9918C0.781993 18.0464 1.89025 20.9357 3.58071 23.4313C4.15392 24.5036 4.77427 25.1674 5.60192 26.0437C2.3587 23.453 0.260415 19.4652 0.260415 14.991C0.260415 7.18231 6.59045 0.851532 14.3999 0.851532C22.2094 0.851532 28.6599 7.45769 28.4279 14.991C28.2318 7.64103 21.797 1.37386 14.3999 1.37386ZM77.6546 15.9534C77.6546 13.4278 76.5381 11.3804 74.0866 11.3804C71.8109 11.3804 70.5171 13.4278 70.5171 15.9534C70.5171 18.4789 71.5984 20.5263 74.0866 20.5263C76.5029 20.5263 77.213 19.329 77.5842 17.4141L76.7513 17.4111C76.681 18.1212 76.2178 19.7211 74.442 19.7563C72.4163 19.7975 72.2749 17.1978 72.3093 15.9541L72.3445 15.2432C72.3445 14.462 72.2741 12.1519 74.1569 12.1519C75.6491 12.1519 75.8623 14.0713 75.8623 15.2432H72.3445L72.3093 15.9541L77.6546 15.9534ZM35.6185 8.2337L35.5826 8.80242H36.1154C36.506 8.80242 37.0044 8.83759 37.0044 9.33522L36.827 18.9661C36.827 19.3215 36.6489 19.7122 35.938 19.7122H35.4052L35.3693 20.2809H38.9582V19.7122H38.3543C37.8919 19.7122 37.5723 19.57 37.5723 18.9661L37.7497 9.72659L41.5878 19.6762H41.9785L45.8517 9.61959L46.0299 18.9661C46.0299 19.2856 45.7096 19.7122 45.2119 19.7122H44.4659V20.2809H48.979V19.7122H48.4462C48.0555 19.7122 47.5931 19.4989 47.5931 19.0013L47.415 9.4774C47.415 9.15712 47.7704 8.80242 48.1259 8.80242H48.8009V8.2337H45.5666L42.2261 16.9756L38.8856 8.2337H35.6185ZM60.6168 20.2884V19.8267H60.2614C59.9418 19.8267 59.3731 19.7196 59.3731 19.0798V14.4245C59.3731 12.9676 60.1192 12.4348 60.8653 12.4348C61.1496 12.4348 61.3277 12.5769 61.2559 13.1097C61.1848 13.6425 61.6465 13.998 62.0379 13.9628C62.4293 13.9277 62.9269 13.8558 62.8551 12.8613C62.7832 11.8668 62.216 11.4043 61.2207 11.4043C60.4387 11.4043 59.7989 11.902 59.6216 12.1511C59.415 12.4407 59.1591 12.3285 59.1239 12.009C59.0888 11.6894 58.9466 11.3699 58.5911 11.4762C57.9113 11.6935 57.2069 11.8247 56.4943 11.8668V12.2222C57.9865 12.1511 57.8451 12.8972 57.8451 13.2527V19.0806C57.8451 19.7204 57.2763 19.8274 56.9561 19.8274H56.4584V20.2891L60.6168 20.2884ZM68.5333 11.9454C68.0095 11.563 67.351 11.3437 66.5495 11.3437C64.2754 11.3437 62.9808 13.3911 62.9808 15.9174C62.9808 18.443 64.0613 20.4784 66.5495 20.4904C68.7526 20.5016 69.2861 19.2579 69.6565 17.3422L68.8236 17.3385C68.7526 18.0486 68.5041 19.6837 66.905 19.7196C64.88 19.7653 64.7378 17.1604 64.773 15.9174C64.773 15.1354 64.88 12.0075 66.5854 12.0075C68.0417 12.0075 68.9307 13.0387 68.9307 14.2113H69.3924V11.2262H69.0017L68.5333 11.9454ZM119.944 19.7556C117.918 19.7967 117.776 17.1971 117.811 15.9534H123.156C123.156 13.4278 122.041 11.3804 119.588 11.3804C117.314 11.3804 116.02 13.4278 116.02 15.9534C116.02 18.4789 117.1 20.5263 119.588 20.5263C122.004 20.5263 122.716 19.329 123.086 17.4141L122.254 17.4103C122.183 18.1212 121.721 19.7211 119.944 19.7556ZM119.66 12.1511C121.152 12.1511 121.365 14.0706 121.365 15.2425H117.848C117.848 14.4612 117.776 12.1511 119.66 12.1511ZM90.7284 19.7556C88.7027 19.7967 88.5613 17.1971 88.5957 15.9534H93.941C93.941 13.4278 92.8245 11.3804 90.373 11.3804C88.0988 11.3804 86.8035 13.4278 86.8035 15.9534C86.8035 18.4789 87.8848 20.5263 90.373 20.5263C92.7893 20.5263 93.4995 19.329 93.8706 17.4141L93.0378 17.4103C92.9674 18.1212 92.5057 19.7211 90.7284 19.7556ZM90.4433 12.1511C91.937 12.1511 92.1488 14.0706 92.1488 15.2425H88.6309C88.6309 14.4612 88.5613 12.1511 90.4433 12.1511ZM53.0124 19.7556C50.9875 19.7967 50.8453 17.1971 50.8805 15.9534H56.2257C56.2257 13.4278 55.1092 11.3804 52.6577 11.3804C50.3828 11.3804 49.089 13.4278 49.089 15.9534C49.089 18.4789 50.1696 20.5263 52.6577 20.5263C55.074 20.5263 55.7849 19.329 56.1554 17.4141L55.3225 17.4111C55.2514 18.1212 54.7897 19.7211 53.0124 19.7556ZM52.7281 12.1511C54.2209 12.1511 54.4335 14.0706 54.4335 15.2425H50.9156C50.9156 14.4612 50.8453 12.1511 52.7281 12.1511ZM85.3937 18.4325V8.51731C85.3937 8.10873 85.1819 7.77049 84.825 7.8775C84.1454 8.09507 83.4412 8.22631 82.7289 8.26812V8.62357C83.7593 8.55248 83.8663 8.87276 83.8663 9.22821V12.2843C83.4046 11.8578 82.8711 11.4313 81.9125 11.4313C80.704 11.4313 78.465 12.3906 78.465 15.7663C78.465 20.209 81.0594 20.4927 81.8414 20.4927C82.6234 20.4927 83.6538 19.8536 83.8671 19.5154C83.8843 19.4443 83.9913 19.3552 84.0265 19.5154C84.0632 19.8356 84.2936 20.3146 84.6491 20.2083C85.3287 19.9911 86.0329 19.8599 86.7451 19.8177V19.4622C85.2522 19.5341 85.3937 18.7872 85.3937 18.4325ZM83.8663 17.3662C83.8312 19.32 82.8008 19.9247 81.9477 19.9247C80.029 19.8895 80.1704 16.9756 80.1704 15.7311C80.1704 14.4867 80.2422 12.0352 81.9828 12.2484C83.7249 12.4617 83.8671 14.3093 83.8671 15.4108L83.8663 17.3662ZM106.255 15.2013V14.3841H101.565V15.2013H106.255ZM95.1031 17.2674V20.2876H95.493L95.8484 19.5056C96.2039 19.8259 96.9507 20.3587 97.9093 20.3587C98.8694 20.3587 100.22 19.8259 100.754 18.8314C101.286 17.8361 101.037 16.2011 99.8287 15.7034C98.7706 15.2679 97.8427 14.7463 97.1281 14.3886C96.9057 14.2827 96.7235 14.1079 96.6084 13.8902C96.4932 13.6725 96.4514 13.4235 96.489 13.1801C96.596 12.6114 97.0929 12.0075 98.2296 11.9716C99.367 11.9364 99.935 12.8957 100.079 13.9973H100.469V11.1551H100.113L99.7217 11.8301C98.9764 11.3325 98.6561 11.2614 97.9811 11.2614C97.3062 11.2614 96.1687 11.6168 95.5289 12.6121C94.8898 13.6074 95.0672 15.1699 96.596 15.8104C98.1233 16.4495 98.835 16.8409 99.2608 17.0541C99.6873 17.2674 99.9358 18.1205 99.6521 18.6181C99.367 19.115 98.835 19.6845 97.9819 19.6845C97.1288 19.6845 95.7796 19.0798 95.4593 17.2682L95.1031 17.2674ZM112.934 13.7772C113.788 13.564 114.641 12.0359 114.641 11.0055C114.641 9.97504 114.25 8.2337 111.761 8.2337H106.431V8.69541C106.965 8.69541 107.888 8.80242 107.888 9.69067V18.4685C107.888 18.9661 107.853 19.7833 106.431 19.7833V20.2809H110.803C112.117 20.2809 115.138 20.1739 115.21 16.6919C115.21 15.5186 114.641 14.1327 112.934 13.7772ZM109.416 8.80242H111.193C112.509 8.80242 113.041 9.76102 113.041 11.0055C113.041 12.5335 112.579 13.7062 111.193 13.7062H109.416V8.80242ZM111.229 19.7122H109.416V14.2749H111.442C112.615 14.2749 113.646 15.092 113.646 16.8686C113.646 18.6458 112.579 19.7122 111.229 19.7122ZM129.723 13.8206V19.0798C129.723 19.7196 129.155 19.8267 128.834 19.8267H128.621V20.2884H132.494V19.8267H132.139C131.819 19.8267 131.25 19.7196 131.25 19.0798V13.8566C131.215 11.4754 129.083 11.4043 128.337 11.4043C127.555 11.4043 126.701 11.902 126.524 12.1511C126.317 12.4407 126.061 12.3285 126.026 12.009C125.991 11.6894 125.849 11.3699 125.492 11.4762C124.813 11.6935 124.109 11.8247 123.396 11.8668V12.2222C124.888 12.1511 124.747 12.8972 124.747 13.2527V19.0806C124.747 19.7204 124.178 19.8274 123.858 19.8274H123.361V20.2891H127.518V19.8274H127.163C126.842 19.8274 126.274 19.7204 126.274 19.0806V14.4253C126.274 13.644 126.559 12.3996 128.016 12.2926C129.474 12.1863 129.723 13.1457 129.723 13.8206ZM133.318 13.9987L133.958 11.5824H140L134.811 19.7915H137.582C138.222 19.7915 138.72 19.5423 139.395 17.9072H139.68L139.111 20.2884H132.927L138.081 12.0801H135.77C135.201 12.0801 134.563 12.0801 133.674 13.9987H133.318Z" fill="#F5F5F5"/>
</svg>
