<svg width="100" height="42" viewBox="0 0 100 42" fill="none" xmlns="http://www.w3.org/2000/svg">
<path d="M23.7465 21.2173C22.917 22.7835 22.0953 24.3541 21.2702 25.9232C19.8787 28.5695 18.4858 31.2153 17.0939 33.8616C15.8168 36.2887 14.5393 38.7158 13.2657 41.1448C13.1957 41.278 13.116 41.3331 12.9601 41.3311C12.2363 41.3244 11.5121 41.3321 10.7884 41.3345C10.7541 41.3345 10.7193 41.3287 10.659 41.3234C7.1113 34.5612 3.55976 27.7907 0 21.0048C0.22161 20.5814 0.444668 20.1522 0.669657 19.724C2.33583 16.5543 4.00153 13.3847 5.66867 10.216C7.16779 7.36741 8.66788 4.51932 10.1675 1.67074C10.3152 1.38975 10.4673 1.11116 10.6078 0.826306C10.6619 0.717674 10.7304 0.665048 10.8521 0.665531C11.6994 0.667945 12.5468 0.667462 13.3936 0.669393C13.4178 0.669393 13.4414 0.683877 13.4897 0.69981C13.4236 0.830169 13.3632 0.953768 13.299 1.07544C11.5169 4.46283 9.73489 7.84974 7.95236 11.2371C6.61787 13.7738 5.28387 16.311 3.9489 18.8481C3.60417 19.5038 3.25993 20.1595 2.90941 20.8127C2.84085 20.9406 2.83216 21.042 2.9041 21.1787C4.42833 24.0644 5.94725 26.9526 7.46665 29.8407C8.89915 32.5643 10.3307 35.2888 11.7637 38.0128C11.8119 38.1045 11.865 38.1948 11.9326 38.316C14.9787 32.5266 18.0083 26.7686 21.0413 21.0039C20.7811 20.5076 20.5242 20.0151 20.2659 19.5241C19.1246 17.3538 17.9822 15.1841 16.8399 13.0148C16.5975 12.5542 16.3547 12.0941 16.1114 11.634C16.0611 11.5384 16.0254 11.4573 16.0882 11.3405C16.5227 10.5327 16.9476 9.72014 17.3763 8.9095C17.3884 8.88681 17.4082 8.86895 17.4483 8.81922C17.8253 9.53571 18.1908 10.23 18.5563 10.9243C19.8338 13.3518 21.1113 15.7789 22.3884 18.2065C22.8398 19.0649 23.2869 19.9263 23.746 20.7808C23.8315 20.9397 23.83 21.0599 23.7465 21.2173Z" fill="#F5F5F5"/>
<path d="M29.8717 21.0015C26.3081 27.7748 22.7483 34.5419 19.1862 41.3123H16.3709C19.9413 34.5255 23.4962 27.7676 27.0555 21.0015C24.0258 15.2435 20.9962 9.48552 17.9415 3.68022C14.8872 9.48552 11.8586 15.2416 8.82845 21.0015C9.22628 21.7585 9.61977 22.5079 10.0137 23.2567C11.1923 25.4974 12.3713 27.7377 13.5503 29.9779C13.5542 29.9856 13.5571 29.9938 13.5609 30.002C13.6483 30.1836 13.8019 30.3641 13.8048 30.5471C13.8072 30.719 13.6536 30.8952 13.5634 31.0671C13.2273 31.7073 12.8894 32.347 12.5509 32.9863C12.5195 33.0452 12.4795 33.0997 12.4234 33.1876C10.2769 29.1074 8.1472 25.0595 6.01318 21.0029C6.31011 20.4385 6.60511 19.877 6.90059 19.3155C8.37895 16.5056 9.85683 13.6951 11.3352 10.8852C12.7402 8.21525 14.1466 5.54628 15.5516 2.87634C15.9088 2.19751 16.2666 1.51868 16.62 0.837439C16.6722 0.737015 16.7219 0.666525 16.8542 0.66749C17.6301 0.673284 18.4064 0.669904 19.206 0.669904C22.7585 7.44227 26.3144 14.2195 29.8717 21.0015Z" fill="#F5F5F5"/>
<path d="M62.499 25.2286H62.2262C61.6965 25.2286 61.1669 25.2219 60.6373 25.2325C60.4543 25.2364 60.3283 25.1823 60.2056 25.0432C58.7794 23.4297 57.3479 21.8214 55.9173 20.2122C55.855 20.1427 55.7918 20.0737 55.7295 20.0046C55.7116 20.0114 55.6938 20.0182 55.6759 20.0249V25.2103H53.5974C53.5375 25.0215 53.5086 17.7885 53.567 17.0286C53.6298 17.0218 53.6964 17.0088 53.763 17.0083C54.3458 17.0069 54.9285 17.0131 55.5108 17.0035C55.6614 17.0011 55.7532 17.0595 55.8468 17.1652C57.2808 18.7836 58.7176 20.3991 60.154 22.0151C60.2163 22.0851 60.2824 22.1517 60.3915 22.2676V17.0233H62.4758C62.5304 17.2154 62.555 24.5986 62.499 25.2286Z" fill="#F5F5F5"/>
<path d="M40.7292 22.2288C40.792 22.1839 40.8412 22.1477 40.8909 22.1125C41.8682 21.4211 42.3394 20.5013 42.1622 19.2904C42.0222 18.333 41.5345 17.6397 40.6215 17.2738C40.2 17.1053 39.7578 17.013 39.3054 17.0116C37.5489 17.0043 35.793 17.0082 34.0365 17.0097C33.9786 17.0097 33.9201 17.0246 33.8661 17.0323C33.8144 17.5538 33.8371 25.0228 33.8897 25.2155H35.9726V22.687H38.5421C38.5855 22.758 38.6328 22.8323 38.6768 22.9077C39.0809 23.601 39.4922 24.2899 39.8843 24.99C39.9895 25.1788 40.1117 25.2396 40.3207 25.2343C40.8765 25.2203 41.4327 25.2295 41.9889 25.2295H42.475C41.8725 24.1943 41.3033 23.2152 40.7292 22.2288ZM39.7085 20.5303C39.5569 20.8654 39.3237 21.0474 38.9264 21.0387C38.0438 21.0194 37.1608 21.0324 36.2777 21.0324H35.9851V18.6585C36.0691 18.6512 36.1449 18.6391 36.2207 18.6387C37.0599 18.6372 37.8985 18.6377 38.7371 18.6387C38.8255 18.6387 38.9143 18.6406 39.0012 18.6512C39.4111 18.7005 39.6844 18.9361 39.7771 19.3368C39.8708 19.7395 39.8838 20.1416 39.7085 20.5303Z" fill="#F5F5F5"/>
<path d="M70.2411 17.019H67.3756C66.1743 19.7445 64.9746 22.4666 63.7646 25.2109H66.1922C66.3771 24.7459 66.5558 24.2969 66.7339 23.8498H70.8822C71.0671 24.3133 71.2492 24.7681 71.4254 25.2094H73.851C72.6382 22.4579 71.4379 19.7348 70.2411 17.019ZM67.3819 22.1986C67.8555 20.9955 68.3166 19.8227 68.7781 18.6505C68.7979 18.6505 68.8182 18.6505 68.838 18.6505C69.2976 19.8169 69.7573 20.9834 70.2348 22.1962C69.274 22.201 68.348 22.1977 67.3819 22.1986Z" fill="#F5F5F5"/>
<path d="M51.5789 23.5911V25.2138H44.4517V17.021H51.4495C51.506 17.2054 51.5229 18.1247 51.4751 18.6278C51.2124 18.6485 50.9421 18.6341 50.6731 18.637C50.3994 18.6394 50.1256 18.6374 49.8519 18.6374H46.5784V20.2804H50.9633V21.9128H46.576V23.5804C46.9854 23.6036 47.3963 23.5872 47.8067 23.5901C48.2306 23.5925 48.6545 23.5906 49.0779 23.5906L51.5789 23.5911Z" fill="#F5F5F5"/>
<path d="M83.3599 22.4072C83.3595 22.636 83.3479 22.8678 83.3102 23.0928C83.1678 23.9416 82.684 24.5325 81.9072 24.8898C81.3553 25.1433 80.7668 25.2519 80.1686 25.3181C79.9233 25.3456 79.6766 25.3692 79.4304 25.3828C78.4869 25.4339 77.5604 25.3374 76.6721 25.0052C76.3944 24.9014 76.125 24.7551 75.8822 24.5847C75.2647 24.1521 74.96 23.535 74.9083 22.7891C74.9011 22.6838 74.9026 22.5771 74.9026 22.4714C74.9021 20.7599 74.9026 19.0478 74.9026 17.3358V17.019H77.0245V17.3387C77.0245 18.9976 77.0346 20.6565 77.0177 22.315C77.0134 22.7524 77.2012 23.0334 77.5542 23.241C77.8318 23.4042 78.135 23.4964 78.4502 23.5466C79.0784 23.6461 79.6998 23.6219 80.3052 23.4134C80.4539 23.3622 80.5987 23.2927 80.7359 23.214C81.0656 23.0233 81.2356 22.7519 81.2322 22.3493C81.2187 20.9375 81.2264 19.5258 81.2274 18.1141C81.2274 17.8229 81.2303 17.5318 81.2336 17.2407C81.2346 17.1716 81.2438 17.1031 81.2501 17.0215H83.3435C83.3498 17.0948 83.3619 17.1702 83.3619 17.2455C83.3628 18.9662 83.3638 20.6865 83.3599 22.4072Z" fill="#F5F5F5"/>
<path d="M99.9999 17.0171V18.634H96.8109V25.2118H94.6909C94.689 24.8531 94.6861 24.4958 94.6846 24.1381C94.6836 23.7677 94.6846 23.3969 94.6846 23.0266V18.6369H91.5246C91.4643 18.311 91.4773 17.1933 91.5377 17.0171H99.9999Z" fill="#F5F5F5"/>
<path d="M92.4961 23.5911V25.2124H85.7285V17.0249H87.834V23.5911H92.4961Z" fill="#F5F5F5"/>
</svg>
